<svg preserveAspectRatio="xMidYMid slice" viewBox="0 0 158.4 164.79999999999998" xmlns:xlink="http://www.w3.org/1999/xlink" version="1.1" xmlns="http://www.w3.org/2000/svg" style="max-height: 500px" width="158.4" height="164.79999999999998"><defs><pattern shape-rendering="crispEdges" patternTransform="translate(0 0) scale(8) rotate(0)" patternUnits="userSpaceOnUse" height="20" width="20" id="pppixelate-pattern">
    <rect fill="hsl(50, 98%, 50%)" y="3" x="8" height="1" width="1"/><rect fill="hsl(50, 98%, 50%)" y="3" x="9" height="1" width="1"/><rect fill="hsl(50, 98%, 50%)" y="4" x="7" height="1" width="1"/><rect fill="hsl(50, 98%, 50%)" y="4" x="8" height="1" width="1"/><rect fill="hsl(50, 98%, 50%)" y="4" x="9" height="1" width="1"/><rect fill="hsl(50, 98%, 50%)" y="4" x="10" height="1" width="1"/><rect fill="hsl(50, 98%, 50%)" y="5" x="7" height="1" width="1"/><rect fill="hsl(50, 98%, 50%)" y="5" x="8" height="1" width="1"/><rect fill="hsl(50, 98%, 50%)" y="5" x="9" height="1" width="1"/><rect fill="hsl(50, 98%, 50%)" y="5" x="10" height="1" width="1"/><rect fill="hsl(50, 98%, 50%)" y="6" x="7" height="1" width="1"/><rect fill="hsl(50, 98%, 50%)" y="6" x="8" height="1" width="1"/><rect fill="hsl(50, 98%, 50%)" y="6" x="9" height="1" width="1"/><rect fill="hsl(50, 98%, 50%)" y="6" x="10" height="1" width="1"/><rect fill="hsl(50, 98%, 50%)" y="7" x="3" height="1" width="1"/><rect fill="hsl(50, 98%, 50%)" y="7" x="4" height="1" width="1"/><rect fill="hsl(50, 98%, 50%)" y="7" x="5" height="1" width="1"/><rect fill="hsl(50, 98%, 50%)" y="7" x="7" height="1" width="1"/><rect fill="hsl(50, 98%, 50%)" y="7" x="8" height="1" width="1"/><rect fill="hsl(50, 98%, 50%)" y="7" x="9" height="1" width="1"/><rect fill="hsl(50, 98%, 50%)" y="7" x="10" height="1" width="1"/><rect fill="hsl(50, 98%, 50%)" y="7" x="11" height="1" width="1"/><rect fill="hsl(50, 98%, 50%)" y="7" x="12" height="1" width="1"/><rect fill="hsl(50, 98%, 50%)" y="8" x="2" height="1" width="1"/><rect fill="hsl(50, 98%, 50%)" y="8" x="3" height="1" width="1"/><rect fill="hsl(50, 98%, 50%)" y="8" x="4" height="1" width="1"/><rect fill="hsl(50, 98%, 50%)" y="8" x="5" height="1" width="1"/><rect fill="hsl(50, 98%, 50%)" y="8" x="6" height="1" width="1"/><rect fill="hsl(50, 98%, 50%)" y="8" x="9" height="1" width="1"/><rect fill="hsl(50, 98%, 50%)" y="8" x="10" height="1" width="1"/><rect fill="hsl(50, 98%, 50%)" y="8" x="11" height="1" width="1"/><rect fill="hsl(50, 98%, 50%)" y="8" x="12" height="1" width="1"/><rect fill="hsl(50, 98%, 50%)" y="8" x="13" height="1" width="1"/><rect fill="hsl(50, 98%, 50%)" y="9" x="2" height="1" width="1"/><rect fill="hsl(50, 98%, 50%)" y="9" x="3" height="1" width="1"/><rect fill="hsl(50, 98%, 50%)" y="9" x="4" height="1" width="1"/><rect fill="hsl(50, 98%, 50%)" y="9" x="5" height="1" width="1"/><rect fill="hsl(50, 98%, 50%)" y="9" x="6" height="1" width="1"/><rect fill="hsl(180, 69%, 30%)" y="9" x="9" height="1" width="1"/><rect fill="hsl(50, 98%, 50%)" y="9" x="10" height="1" width="1"/><rect fill="hsl(50, 98%, 50%)" y="9" x="11" height="1" width="1"/><rect fill="hsl(50, 98%, 50%)" y="9" x="12" height="1" width="1"/><rect fill="hsl(50, 98%, 50%)" y="9" x="13" height="1" width="1"/><rect fill="hsl(50, 98%, 50%)" y="10" x="3" height="1" width="1"/><rect fill="hsl(50, 98%, 50%)" y="10" x="4" height="1" width="1"/><rect fill="hsl(50, 98%, 50%)" y="10" x="5" height="1" width="1"/><rect fill="hsl(50, 98%, 50%)" y="10" x="6" height="1" width="1"/><rect fill="hsl(180, 69%, 30%)" y="10" x="7" height="1" width="1"/><rect fill="hsl(180, 69%, 30%)" y="10" x="8" height="1" width="1"/><rect fill="hsl(50, 98%, 50%)" y="10" x="9" height="1" width="1"/><rect fill="hsl(50, 98%, 50%)" y="10" x="10" height="1" width="1"/><rect fill="hsl(50, 98%, 50%)" y="10" x="11" height="1" width="1"/><rect fill="hsl(50, 98%, 50%)" y="10" x="12" height="1" width="1"/><rect fill="hsl(50, 98%, 50%)" y="11" x="6" height="1" width="1"/><rect fill="hsl(50, 98%, 50%)" y="11" x="7" height="1" width="1"/><rect fill="hsl(50, 98%, 50%)" y="11" x="8" height="1" width="1"/><rect fill="hsl(50, 98%, 50%)" y="11" x="9" height="1" width="1"/><rect fill="hsl(180, 69%, 30%)" y="11" x="10" height="1" width="1"/><rect fill="hsl(180, 69%, 30%)" y="11" x="14" height="1" width="1"/><rect fill="hsl(180, 69%, 30%)" y="11" x="15" height="1" width="1"/><rect fill="hsl(180, 69%, 30%)" y="11" x="16" height="1" width="1"/><rect fill="hsl(50, 98%, 50%)" y="12" x="5" height="1" width="1"/><rect fill="hsl(50, 98%, 50%)" y="12" x="6" height="1" width="1"/><rect fill="hsl(50, 98%, 50%)" y="12" x="7" height="1" width="1"/><rect fill="hsl(50, 98%, 50%)" y="12" x="8" height="1" width="1"/><rect fill="hsl(50, 98%, 50%)" y="12" x="9" height="1" width="1"/><rect fill="hsl(180, 69%, 30%)" y="12" x="10" height="1" width="1"/><rect fill="hsl(180, 69%, 30%)" y="12" x="11" height="1" width="1"/><rect fill="hsl(180, 69%, 30%)" y="12" x="13" height="1" width="1"/><rect fill="hsl(180, 69%, 30%)" y="12" x="14" height="1" width="1"/><rect fill="hsl(180, 69%, 30%)" y="12" x="15" height="1" width="1"/><rect fill="hsl(180, 69%, 30%)" y="12" x="16" height="1" width="1"/><rect fill="hsl(50, 98%, 50%)" y="13" x="5" height="1" width="1"/><rect fill="hsl(50, 98%, 50%)" y="13" x="6" height="1" width="1"/><rect fill="hsl(50, 98%, 50%)" y="13" x="7" height="1" width="1"/><rect fill="hsl(50, 98%, 50%)" y="13" x="8" height="1" width="1"/><rect fill="hsl(50, 98%, 50%)" y="13" x="9" height="1" width="1"/><rect fill="hsl(180, 69%, 30%)" y="13" x="11" height="1" width="1"/><rect fill="hsl(180, 69%, 30%)" y="13" x="13" height="1" width="1"/><rect fill="hsl(180, 69%, 30%)" y="13" x="14" height="1" width="1"/><rect fill="hsl(180, 69%, 30%)" y="13" x="15" height="1" width="1"/><rect fill="hsl(180, 69%, 30%)" y="13" x="16" height="1" width="1"/><rect fill="hsl(50, 98%, 50%)" y="14" x="6" height="1" width="1"/><rect fill="hsl(50, 98%, 50%)" y="14" x="7" height="1" width="1"/><rect fill="hsl(50, 98%, 50%)" y="14" x="8" height="1" width="1"/><rect fill="hsl(180, 69%, 30%)" y="14" x="11" height="1" width="1"/><rect fill="hsl(180, 69%, 30%)" y="14" x="12" height="1" width="1"/><rect fill="hsl(180, 69%, 30%)" y="14" x="13" height="1" width="1"/><rect fill="hsl(180, 69%, 30%)" y="14" x="14" height="1" width="1"/><rect fill="hsl(180, 69%, 30%)" y="14" x="15" height="1" width="1"/><rect fill="hsl(180, 69%, 30%)" y="15" x="11" height="1" width="1"/><rect fill="hsl(180, 69%, 30%)" y="16" x="10" height="1" width="1"/><rect fill="hsl(180, 69%, 30%)" y="16" x="11" height="1" width="1"/><rect fill="hsl(180, 69%, 30%)" y="17" x="10" height="1" width="1"/><rect fill="hsl(180, 69%, 30%)" y="18" x="10" height="1" width="1"/>
  </pattern></defs><rect fill="url(#pppixelate-pattern)" height="100%" width="100%"/></svg>