<svg preserveAspectRatio="xMidYMid slice" viewBox="0 49.6 705.6 753.5999999999999" xmlns:xlink="http://www.w3.org/1999/xlink" version="1.1" xmlns="http://www.w3.org/2000/svg" style="max-height: 500px" width="705.6" height="753.5999999999999"><defs><pattern shape-rendering="crispEdges" patternTransform="translate(-25 0) scale(40) rotate(0)" patternUnits="userSpaceOnUse" height="20" width="20" id="pppixelate-pattern">
    <rect fill="hsla(53, 98%, 50%, 1.00)" y="3" x="8" height="1" width="1"/><rect fill="hsla(53, 98%, 50%, 1.00)" y="3" x="9" height="1" width="1"/><rect fill="hsla(53, 98%, 50%, 1.00)" y="4" x="7" height="1" width="1"/><rect fill="hsla(53, 98%, 50%, 1.00)" y="4" x="8" height="1" width="1"/><rect fill="hsla(53, 98%, 50%, 1.00)" y="4" x="9" height="1" width="1"/><rect fill="hsla(53, 98%, 50%, 1.00)" y="4" x="10" height="1" width="1"/><rect fill="hsla(53, 98%, 50%, 1.00)" y="5" x="7" height="1" width="1"/><rect fill="hsla(53, 98%, 50%, 1.00)" y="5" x="8" height="1" width="1"/><rect fill="hsla(53, 98%, 50%, 1.00)" y="5" x="9" height="1" width="1"/><rect fill="hsla(53, 98%, 50%, 1.00)" y="5" x="10" height="1" width="1"/><rect fill="hsla(53, 98%, 50%, 1.00)" y="6" x="7" height="1" width="1"/><rect fill="hsla(53, 98%, 50%, 1.00)" y="6" x="8" height="1" width="1"/><rect fill="hsla(53, 98%, 50%, 1.00)" y="6" x="9" height="1" width="1"/><rect fill="hsla(53, 98%, 50%, 1.00)" y="6" x="10" height="1" width="1"/><rect fill="hsla(53, 98%, 50%, 1.00)" y="7" x="3" height="1" width="1"/><rect fill="hsla(53, 98%, 50%, 1.00)" y="7" x="4" height="1" width="1"/><rect fill="hsla(53, 98%, 50%, 1.00)" y="7" x="5" height="1" width="1"/><rect fill="hsla(53, 98%, 50%, 1.00)" y="7" x="7" height="1" width="1"/><rect fill="hsla(53, 98%, 50%, 1.00)" y="7" x="8" height="1" width="1"/><rect fill="hsla(53, 98%, 50%, 1.00)" y="7" x="9" height="1" width="1"/><rect fill="hsla(53, 98%, 50%, 1.00)" y="7" x="10" height="1" width="1"/><rect fill="hsla(53, 98%, 50%, 1.00)" y="7" x="11" height="1" width="1"/><rect fill="hsla(53, 98%, 50%, 1.00)" y="7" x="12" height="1" width="1"/><rect fill="hsla(53, 98%, 50%, 1.00)" y="8" x="2" height="1" width="1"/><rect fill="hsla(53, 98%, 50%, 1.00)" y="8" x="3" height="1" width="1"/><rect fill="hsla(53, 98%, 50%, 1.00)" y="8" x="4" height="1" width="1"/><rect fill="hsla(53, 98%, 50%, 1.00)" y="8" x="5" height="1" width="1"/><rect fill="hsla(53, 98%, 50%, 1.00)" y="8" x="6" height="1" width="1"/><rect fill="hsla(180, 88%, 42%, 1.00)" y="8" x="9" height="1" width="1"/><rect fill="hsla(53, 98%, 50%, 1.00)" y="8" x="10" height="1" width="1"/><rect fill="hsla(53, 98%, 50%, 1.00)" y="8" x="11" height="1" width="1"/><rect fill="hsla(53, 98%, 50%, 1.00)" y="8" x="12" height="1" width="1"/><rect fill="hsla(53, 98%, 50%, 1.00)" y="8" x="13" height="1" width="1"/><rect fill="hsla(53, 98%, 50%, 1.00)" y="9" x="2" height="1" width="1"/><rect fill="hsla(53, 98%, 50%, 1.00)" y="9" x="3" height="1" width="1"/><rect fill="hsla(53, 98%, 50%, 1.00)" y="9" x="4" height="1" width="1"/><rect fill="hsla(53, 98%, 50%, 1.00)" y="9" x="5" height="1" width="1"/><rect fill="hsla(53, 98%, 50%, 1.00)" y="9" x="6" height="1" width="1"/><rect fill="hsla(180, 88%, 42%, 1.00)" y="9" x="9" height="1" width="1"/><rect fill="hsla(53, 98%, 50%, 1.00)" y="9" x="10" height="1" width="1"/><rect fill="hsla(53, 98%, 50%, 1.00)" y="9" x="11" height="1" width="1"/><rect fill="hsla(53, 98%, 50%, 1.00)" y="9" x="12" height="1" width="1"/><rect fill="hsla(53, 98%, 50%, 1.00)" y="9" x="13" height="1" width="1"/><rect fill="hsla(53, 98%, 50%, 1.00)" y="10" x="3" height="1" width="1"/><rect fill="hsla(53, 98%, 50%, 1.00)" y="10" x="4" height="1" width="1"/><rect fill="hsla(53, 98%, 50%, 1.00)" y="10" x="5" height="1" width="1"/><rect fill="hsla(53, 98%, 50%, 1.00)" y="10" x="6" height="1" width="1"/><rect fill="hsla(180, 87%, 42%, 1.00)" y="10" x="7" height="1" width="1"/><rect fill="hsla(180, 87%, 42%, 1.00)" y="10" x="8" height="1" width="1"/><rect fill="hsla(53, 98%, 50%, 1.00)" y="10" x="9" height="1" width="1"/><rect fill="hsla(53, 98%, 50%, 1.00)" y="10" x="10" height="1" width="1"/><rect fill="hsla(53, 98%, 50%, 1.00)" y="10" x="11" height="1" width="1"/><rect fill="hsla(53, 98%, 50%, 1.00)" y="10" x="12" height="1" width="1"/><rect fill="hsla(53, 98%, 50%, 1.00)" y="11" x="6" height="1" width="1"/><rect fill="hsla(53, 98%, 50%, 1.00)" y="11" x="7" height="1" width="1"/><rect fill="hsla(53, 98%, 50%, 1.00)" y="11" x="8" height="1" width="1"/><rect fill="hsla(53, 98%, 50%, 1.00)" y="11" x="9" height="1" width="1"/><rect fill="hsla(180, 87%, 42%, 1.00)" y="11" x="10" height="1" width="1"/><rect fill="hsla(180, 87%, 42%, 1.00)" y="11" x="14" height="1" width="1"/><rect fill="hsla(180, 87%, 42%, 1.00)" y="11" x="15" height="1" width="1"/><rect fill="hsla(180, 87%, 42%, 1.00)" y="11" x="16" height="1" width="1"/><rect fill="hsla(53, 98%, 50%, 1.00)" y="12" x="5" height="1" width="1"/><rect fill="hsla(53, 98%, 50%, 1.00)" y="12" x="6" height="1" width="1"/><rect fill="hsla(53, 98%, 50%, 1.00)" y="12" x="7" height="1" width="1"/><rect fill="hsla(53, 98%, 50%, 1.00)" y="12" x="8" height="1" width="1"/><rect fill="hsla(53, 98%, 50%, 1.00)" y="12" x="9" height="1" width="1"/><rect fill="hsla(180, 87%, 42%, 1.00)" y="12" x="10" height="1" width="1"/><rect fill="hsla(180, 87%, 42%, 1.00)" y="12" x="11" height="1" width="1"/><rect fill="hsla(180, 87%, 42%, 1.00)" y="12" x="13" height="1" width="1"/><rect fill="hsla(180, 87%, 42%, 1.00)" y="12" x="14" height="1" width="1"/><rect fill="hsla(180, 87%, 42%, 1.00)" y="12" x="15" height="1" width="1"/><rect fill="hsla(180, 87%, 42%, 1.00)" y="12" x="16" height="1" width="1"/><rect fill="hsla(53, 98%, 50%, 1.00)" y="13" x="5" height="1" width="1"/><rect fill="hsla(53, 98%, 50%, 1.00)" y="13" x="6" height="1" width="1"/><rect fill="hsla(53, 98%, 50%, 1.00)" y="13" x="7" height="1" width="1"/><rect fill="hsla(53, 98%, 50%, 1.00)" y="13" x="8" height="1" width="1"/><rect fill="hsla(53, 98%, 50%, 1.00)" y="13" x="9" height="1" width="1"/><rect fill="hsla(180, 87%, 42%, 1.00)" y="13" x="11" height="1" width="1"/><rect fill="hsla(180, 87%, 42%, 1.00)" y="13" x="13" height="1" width="1"/><rect fill="hsla(180, 87%, 42%, 1.00)" y="13" x="14" height="1" width="1"/><rect fill="hsla(180, 87%, 42%, 1.00)" y="13" x="15" height="1" width="1"/><rect fill="hsla(180, 87%, 42%, 1.00)" y="13" x="16" height="1" width="1"/><rect fill="hsla(53, 98%, 50%, 1.00)" y="14" x="6" height="1" width="1"/><rect fill="hsla(53, 98%, 50%, 1.00)" y="14" x="7" height="1" width="1"/><rect fill="hsla(53, 98%, 50%, 1.00)" y="14" x="8" height="1" width="1"/><rect fill="hsla(180, 87%, 42%, 1.00)" y="14" x="11" height="1" width="1"/><rect fill="hsla(180, 87%, 42%, 1.00)" y="14" x="12" height="1" width="1"/><rect fill="hsla(180, 87%, 42%, 1.00)" y="14" x="13" height="1" width="1"/><rect fill="hsla(180, 87%, 42%, 1.00)" y="14" x="14" height="1" width="1"/><rect fill="hsla(180, 87%, 42%, 1.00)" y="14" x="15" height="1" width="1"/><rect fill="hsla(180, 87%, 42%, 1.00)" y="15" x="11" height="1" width="1"/><rect fill="hsla(180, 87%, 42%, 1.00)" y="16" x="10" height="1" width="1"/><rect fill="hsla(180, 87%, 42%, 1.00)" y="16" x="11" height="1" width="1"/><rect fill="hsla(180, 87%, 42%, 1.00)" y="17" x="10" height="1" width="1"/><rect fill="hsla(180, 87%, 42%, 1.00)" y="18" x="10" height="1" width="1"/>
  </pattern></defs><rect fill="url(#pppixelate-pattern)" height="100%" width="100%"/></svg>