<svg width="319" height="320" viewBox="0 0 319 320" fill="none" xmlns="http://www.w3.org/2000/svg">
<path d="M174.525 167.969L215.677 121.96L58.8591 72.1659L174.525 167.969Z" fill="#FCB82F"/>
<path d="M-8.52493e-05 319.416L263.514 239.245L208.302 195.492L86.4539 267.983L-8.52493e-05 319.416Z" fill="#FCB82F"/>
<path d="M208.302 195.492L174.525 167.969L86.4539 267.983L208.302 195.492Z" fill="#C71D69"/>
<path d="M286.838 144.808L318.887 -6.50448e-05L215.677 121.96L286.838 144.808Z" fill="#C71D69"/>
<path d="M263.514 239.245L286.838 144.808L208.302 195.492L263.514 239.245Z" fill="#C71D69"/>
<path d="M215.677 121.96L174.525 167.969L208.302 195.492L286.838 144.808L215.677 121.96Z" fill="#C71D69"/>
<path d="M215.677 121.96L174.525 167.969L208.302 195.492L286.838 144.808L215.677 121.96Z" fill="#FCB82F" fill-opacity="0.5"/>
</svg>
