<svg width="186" height="311" viewBox="0 0 186 311" fill="none" xmlns="http://www.w3.org/2000/svg">
<path d="M105.369 157.373L122.211 113.861L3.26559e-05 117.529L105.369 157.373Z" fill="#FCB82F"/>
<path d="M22.6846 310.45L185.809 186.277L136.022 168.682L69.7245 251.611L22.6846 310.45Z" fill="#FCB82F"/>
<path d="M136.022 168.682L105.369 157.373L69.7245 251.611L136.022 168.682Z" fill="#C71D69"/>
<path d="M177.733 112.378L162.757 6.1738e-05L122.211 113.861L177.733 112.378Z" fill="#C71D69"/>
<path d="M185.809 186.277L177.733 112.378L136.022 168.682L185.809 186.277Z" fill="#C71D69"/>
<path d="M122.211 113.861L105.369 157.373L136.022 168.682L177.733 112.378L122.211 113.861Z" fill="#C71D69"/>
<path d="M122.211 113.861L105.369 157.373L136.022 168.682L177.733 112.378L122.211 113.861Z" fill="#FCB82F" fill-opacity="0.5"/>
</svg>
