<svg width="280" height="320" viewBox="0 0 280 320" fill="none" xmlns="http://www.w3.org/2000/svg">
<path d="M190.24 121.293L154.329 167.157L186.84 191.792L257.1 139.674L190.24 121.293Z" fill="#D84381"/>
<path d="M190.24 121.293L154.329 167.157L186.84 191.792L257.1 139.674L190.24 121.293Z" fill="#FCB82F" fill-opacity="0.44"/>
<path d="M257.1 139.674L280 0L190.24 121.293L257.1 139.674Z" fill="#D84381"/>
<path d="M186.84 191.792L154.329 167.157L77.5465 266.788L186.84 191.792Z" fill="#D84381"/>
<path d="M239.926 230.879L257.1 139.674L186.84 191.792L239.926 230.879Z" fill="#D84381"/>
<path d="M154.329 167.157L190.24 121.293L42.925 81.3169L154.329 167.157Z" fill="#FCB82F"/>
<path d="M0 320L239.926 230.879L186.84 191.792L77.5465 266.788L0 320Z" fill="#FCB82F"/>
</svg>
