<svg width="319" height="320" viewBox="0 0 319 320" fill="none" xmlns="http://www.w3.org/2000/svg">
<path d="M286.838 144.808L318.887 -6.39761e-05L215.677 121.96L286.838 144.808Z" fill="#452526"/>
<path d="M263.514 239.245L286.838 144.808L208.302 195.492L263.514 239.245Z" fill="#452526"/>
<path d="M215.677 121.96L195.101 144.965L174.525 167.969L208.302 195.492L286.838 144.808L215.677 121.96Z" fill="#452526"/>
<path d="M215.677 121.96L195.101 144.965L174.525 167.969L208.302 195.492L286.838 144.808L215.677 121.96Z" fill="#81ACDE" fill-opacity="0.5"/>
<path d="M174.525 167.969L195.101 144.965L215.677 121.96L58.8591 72.1659L174.525 167.969Z" fill="#81ACDE"/>
<path d="M-8.48136e-05 319.416L263.514 239.245L208.302 195.492L86.4539 267.983L-8.48136e-05 319.416Z" fill="#81ACDE"/>
<path d="M208.302 195.492L174.525 167.969L86.4539 267.983L208.302 195.492Z" fill="#81ACDE"/>
<path d="M208.302 195.492L174.525 167.969L86.4539 267.983L208.302 195.492Z" fill="#452526"/>
</svg>
